# xmcd
#
# Track frame offsets: 
#        150
#        16582
#        34825
#        51692
#        72321
#        85916
#        97833
#        115128
#        132318
#        148383
#        164263
#        181063
#        199490
#        218638
#        236414
#        253724
#        267005
#        285082
#        301019
#        316260
#
# Disc length: 4480 seconds
#
# Revision: 0
# Processed by: cddbd v1.5.2PL0 Copyright (c) Steve Scherf et al.
# Submitted via: ExactAudioCopy v1.1
#
DISCID=14117e14
DTITLE=Various Artist - Re-Birth
DYEAR=2003
DGENRE=Reggae
TTITLE0=Sizzla - Got To Live
TTITLE1=Wayne Marshall - Hot In Da Club
TTITLE2=Elephant Man and Kip Rich - The Pain
TTITLE3=Brian and Tony Gold - Have Fun Today
TTITLE4=Greg Hinds and Briggy Benz - Shake Up
TTITLE5=Bling Dawg - Have We Own
TTITLE6=Tanya Stephens - Just Work It
TTITLE7=Sean Paul - Close To Me
TTITLE8=Ward 21 - Run The Business
TTITLE9=Looga Man - Mi Get
TTITLE10=Bounty Killer - Gal Fi Get Score
TTITLE11=Assassin - Dem Bad Mind
TTITLE12=Kid Kurrupt - Shani
TTITLE13=Spragga Benz - Look Good
TTITLE14=Lukie D - Mighty Fine
TTITLE15=Vybz Kartel - Buss It Off
TTITLE16=T.O.K. - Nuff Ruff Like We
TTITLE17=Wayne Wonder and Demolition - Baby I Need You
TTITLE18=Ce'cile - Can't Test
TTITLE19=Renaissance Crew Productions - Re-Birth Version
EXTD=
EXTT0=
EXTT1=
EXTT2=
EXTT3=
EXTT4=
EXTT5=
EXTT6=
EXTT7=
EXTT8=
EXTT9=
EXTT10=
EXTT11=
EXTT12=
EXTT13=
EXTT14=
EXTT15=
EXTT16=
EXTT17=
EXTT18=
EXTT19=
PLAYORDER=
